<svg xmlns="http://www.w3.org/2000/svg" viewBox="0 0 64 64">
<g fill="#000">
<rect x="0" y="16" width="44" height="1" />
<rect x="0" y="15" width="50" height="1" />
<rect x="0" y="14" width="54" height="1" />
<rect x="0" y="13" width="57" height="1" />
<rect x="0" y="12" width="60" height="1" />
<rect x="0" y="11" width="62" height="1" />
<rect x="0" y="10" width="64" height="1" />
<rect x="0" y="9" width="64" height="1" />
<rect x="0" y="8" width="64" height="1" />
<rect x="0" y="7" width="64" height="1" />
<rect x="0" y="6" width="64" height="1" />
<rect x="0" y="5" width="64" height="1" />
<rect x="0" y="4" width="64" height="1" />
<rect x="0" y="3" width="64" height="1" />
<rect x="0" y="2" width="64" height="1" />
<rect x="0" y="1" width="64" height="1" />
<rect x="0" y="0" width="64" height="1" />
</g>
</svg>
